# xmcd CD database file
#
# Track frame offsets:
#	150
#	9490
#	82760
#	131277
#	188482
#	242950
#	304920
#
# Disc length: 4264 seconds
#
# Revision: 1
# Processed by: cddbd v1.5.1PL0 Copyright (c) Steve Scherf et al.
# Submitted via: CDex 1.51
#
DISCID=4810a607
DTITLE=Toru Takemitsu - Quotation of dream - London Sinfonietta, Conducted by Oliver Knussen
DYEAR=1998
DGENRE=Classical
TTITLE0=day signals
TTITLE1=quotation of dream
TTITLE2=how slow the wind
TTITLE3=twill by twilight
TTITLE4=archipelago S.
TTITLE5=dream/window
TTITLE6=night signal
EXTD=YEAR: 1998
EXTT0=
EXTT1=
EXTT2=
EXTT3=
EXTT4=
EXTT5=
EXTT6=
PLAYORDER=
